<svg xmlns="http://www.w3.org/2000/svg" version="1.1" xmlns:xlink="http://www.w3.org/1999/xlink" xmlns:svgjs="http://svgjs.dev/svgjs" width="283.46" height="283.46"><svg id="SvgjsSvg1194" data-name="Layer 2" xmlns="http://www.w3.org/2000/svg" viewBox="0 0 283.46 283.46">
  <defs>
    <style>
      .cls-1 {
        fill: none;
      }

      .cls-2 {
        fill: #010101;
      }
    </style>
  </defs>
  <g id="SvgjsG1193" data-name="Layer 1">
    <g>
      <rect class="cls-1" width="283.46" height="283.46"></rect>
      <path class="cls-2" d="M141.73,48.58c19.65,0,35.58,15.93,35.58,35.58s-15.93,35.58-35.58,35.58-35.58-15.93-35.58-35.58,15.93-35.58,35.58-35.58ZM71.02,163.72c19.65,0,35.58,15.93,35.58,35.58s-15.93,35.58-35.58,35.58-35.58-15.93-35.58-35.58,15.93-35.58,35.58-35.58ZM212.45,163.72c19.65,0,35.58,15.93,35.58,35.58s-15.93,35.58-35.58,35.58-35.58-15.93-35.58-35.58,15.93-35.58,35.58-35.58Z"></path>
    </g>
  </g>
</svg><style>@media (prefers-color-scheme: light) { :root { filter: none; } }
@media (prefers-color-scheme: dark) { :root { filter: invert(100%); } }
</style></svg>